<?xml version="1.0" encoding="UTF-8" standalone="no"?>
<svg
   viewBox="0 0 24 24"
   version="1.1"
   id="svg1"
   sodipodi:docname="account-group.svg"
   inkscape:version="1.3 (0e150ed6c4, 2023-07-21)"
   xmlns:inkscape="http://www.inkscape.org/namespaces/inkscape"
   xmlns:sodipodi="http://sodipodi.sourceforge.net/DTD/sodipodi-0.dtd"
   xmlns="http://www.w3.org/2000/svg"
   xmlns:svg="http://www.w3.org/2000/svg">
  <defs
     id="defs1" />
  <sodipodi:namedview
     id="namedview1"
     pagecolor="#ffffff"
     bordercolor="#000000"
     borderopacity="0.25"
     inkscape:showpageshadow="2"
     inkscape:pageopacity="0.0"
     inkscape:pagecheckerboard="0"
     inkscape:deskcolor="#d1d1d1"
     inkscape:zoom="48.416667"
     inkscape:cx="12"
     inkscape:cy="12"
     inkscape:window-width="2560"
     inkscape:window-height="1366"
     inkscape:window-x="0"
     inkscape:window-y="0"
     inkscape:window-maximized="1"
     inkscape:current-layer="svg1" />
  <path
     d="M12,5.5A3.5,3.5 0 0,1 15.5,9A3.5,3.5 0 0,1 12,12.5A3.5,3.5 0 0,1 8.5,9A3.5,3.5 0 0,1 12,5.5M5,8C5.56,8 6.08,8.15 6.53,8.42C6.38,9.85 6.8,11.27 7.66,12.38C7.16,13.34 6.16,14 5,14A3,3 0 0,1 2,11A3,3 0 0,1 5,8M19,8A3,3 0 0,1 22,11A3,3 0 0,1 19,14C17.84,14 16.84,13.34 16.34,12.38C17.2,11.27 17.62,9.85 17.47,8.42C17.92,8.15 18.44,8 19,8M5.5,18.25C5.5,16.18 8.41,14.5 12,14.5C15.59,14.5 18.5,16.18 18.5,18.25V20H5.5V18.25M0,20V18.5C0,17.11 1.89,15.94 4.45,15.6C3.86,16.28 3.5,17.22 3.5,18.25V20H0M24,20H20.5V18.25C20.5,17.22 20.14,16.28 19.55,15.6C22.11,15.94 24,17.11 24,18.5V20Z"
     id="path1" />
  <path
     style="fill:#ffffff;stroke-width:0.020654"
     d="M 4.5232358,13.950665 C 3.2880078,13.741951 2.3113814,12.794763 2.0647298,11.566265 1.9868021,11.17813 2.0048034,10.650261 2.1097749,10.245372 2.3763004,9.2173483 3.2173887,8.375957 4.2444062,8.1099719 4.9397482,7.9298868 5.6881749,8.0056332 6.3124562,8.3192741 l 0.1935679,0.097249 -0.00683,0.454389 c -0.00755,0.5020064 0.020843,0.824681 0.1111105,1.2628419 0.1500059,0.728132 0.4813551,1.479732 0.9248868,2.097923 l 0.1113931,0.155258 -0.095236,0.156486 c -0.4609923,0.75747 -1.2187299,1.266328 -2.0980627,1.408952 -0.2292733,0.03719 -0.7050283,0.03631 -0.9300479,-0.0017 z"
     id="path2" />
  <path
     style="fill:#ffffff;stroke-width:0.020654"
     d="M 11.752151,12.481579 C 10.907655,12.408245 10.171312,12.07475 9.5760752,11.496018 9.0610336,10.995258 8.7342299,10.402657 8.5783093,9.686747 8.5370345,9.4972335 8.5310216,9.411264 8.5306382,9.0051635 8.5302501,8.5941635 8.5358125,8.5143073 8.5787602,8.3143 8.856935,7.0188397 9.7916625,6.0062867 11.038683,5.6495632 c 1.795217,-0.5135406 3.673113,0.4746366 4.265342,2.2444875 0.141773,0.423684 0.163651,0.5704294 0.164114,1.1007858 3.62e-4,0.4148617 -0.0054,0.5016388 -0.04543,0.6849782 -0.09013,0.4127783 -0.248998,0.8124913 -0.458358,1.1532313 -0.355207,0.578111 -0.938575,1.084216 -1.569465,1.361602 -0.506876,0.22286 -1.129071,0.331537 -1.64274,0.286931 z"
     id="path3" />
  <path
     style="fill:#ffffff;stroke-width:0.020654"
     d="m 18.526678,13.950665 c -0.869236,-0.146873 -1.620299,-0.656331 -2.080425,-1.411186 l -0.09292,-0.152432 0.111433,-0.155314 c 0.41106,-0.572932 0.727793,-1.26814 0.8913,-1.956346 0.116681,-0.4911101 0.133911,-0.6508948 0.138086,-1.2805505 l 0.0038,-0.5783133 0.191561,-0.097249 c 0.635714,-0.3227308 1.434446,-0.3942337 2.135025,-0.1911287 1.148561,0.3329794 1.992431,1.3246157 2.141904,2.5169615 0.03026,0.241399 0.01503,0.69083 -0.03121,0.921158 -0.08021,0.399503 -0.268014,0.835938 -0.499865,1.161626 -0.145022,0.203717 -0.45941,0.525122 -0.656187,0.670833 -0.384945,0.285047 -0.839373,0.475289 -1.322492,0.553649 -0.229273,0.03719 -0.705028,0.03631 -0.930048,-0.0017 z"
     id="path4" />
  <path
     style="fill:#ffffff;stroke-width:0.020654"
     d="m 5.5043611,19.089501 c 3.43e-5,-0.532107 0.00942,-0.980039 0.022838,-1.089501 0.062706,-0.511691 0.3059136,-1.00875 0.7264028,-1.484596 0.3058975,-0.346168 0.8845582,-0.770807 1.4297027,-1.049161 0.9207284,-0.470128 1.8894058,-0.74555 3.1547674,-0.896988 0.370314,-0.04432 1.53571,-0.06232 1.958281,-0.03026 1.335036,0.101312 2.507128,0.40967 3.5155,0.924869 0.706219,0.360823 1.273265,0.812841 1.652826,1.317544 0.167067,0.22215 0.366353,0.614476 0.435394,0.857143 0.08229,0.28924 0.0955,0.489844 0.09557,1.450947 l 5.8e-5,0.903614 H 12 5.5043029 Z"
     id="path5" />
  <path
     style="fill:#ffffff;stroke-width:0.020654"
     d="m 20.519609,19.172117 c -2.2e-4,-0.978926 -0.02286,-1.405816 -0.09328,-1.75886 -0.124156,-0.622424 -0.383287,-1.198114 -0.765805,-1.701328 l -0.07506,-0.09874 0.09023,0.0133 c 2.171808,0.320226 3.848781,1.258798 4.222434,2.363221 0.08173,0.241589 0.09123,0.366563 0.09139,1.20306 l 1.56e-4,0.800344 h -1.73494 -1.73494 z"
     id="path6" />
  <path
     style="fill:#ffffff;stroke-width:0.020654"
     d="m 0.01465498,19.110155 0.0071049,-0.882961 0.06638804,-0.197773 C 0.20733319,17.674363 0.4504155,17.32734 0.7848537,17.034809 1.5240952,16.388197 2.6853427,15.907118 4.08746,15.666611 c 0.1692736,-0.02904 0.310318,-0.05024 0.313432,-0.04713 0.00311,0.0031 -0.036533,0.06135 -0.088104,0.129407 -0.347634,0.458784 -0.612714,1.041441 -0.728153,1.60051 -0.077493,0.375296 -0.086761,0.524955 -0.098166,1.585198 L 3.475083,19.993115 H 1.7413167 0.00755013 Z"
     id="path7" />
</svg>
