<?xml version="1.0" encoding="UTF-8" standalone="no"?>
<svg
   viewBox="0 0 24 24"
   version="1.1"
   id="svg1"
   sodipodi:docname="card-account-details-outline.svg"
   inkscape:version="1.3 (0e150ed6c4, 2023-07-21)"
   xmlns:inkscape="http://www.inkscape.org/namespaces/inkscape"
   xmlns:sodipodi="http://sodipodi.sourceforge.net/DTD/sodipodi-0.dtd"
   xmlns="http://www.w3.org/2000/svg"
   xmlns:svg="http://www.w3.org/2000/svg">
  <defs
     id="defs1" />
  <sodipodi:namedview
     id="namedview1"
     pagecolor="#ffffff"
     bordercolor="#000000"
     borderopacity="0.25"
     inkscape:showpageshadow="2"
     inkscape:pageopacity="0.0"
     inkscape:pagecheckerboard="0"
     inkscape:deskcolor="#d1d1d1"
     inkscape:zoom="48.416667"
     inkscape:cx="12"
     inkscape:cy="12"
     inkscape:window-width="2560"
     inkscape:window-height="1366"
     inkscape:window-x="0"
     inkscape:window-y="0"
     inkscape:window-maximized="1"
     inkscape:current-layer="svg1" />
  <path
     d="M22,3H2C0.91,3.04 0.04,3.91 0,5V19C0.04,20.09 0.91,20.96 2,21H22C23.09,20.96 23.96,20.09 24,19V5C23.96,3.91 23.09,3.04 22,3M22,19H2V5H22V19M14,17V15.75C14,14.09 10.66,13.25 9,13.25C7.34,13.25 4,14.09 4,15.75V17H14M9,7A2.5,2.5 0 0,0 6.5,9.5A2.5,2.5 0 0,0 9,12A2.5,2.5 0 0,0 11.5,9.5A2.5,2.5 0 0,0 9,7M14,7V8H20V7H14M14,9V10H20V9H14M14,11V12H18V11H14"
     id="path1" />
  <path
     style="fill:#ffffff;stroke-width:0.020654"
     d="M 1.6854653,20.952634 C 1.2341415,20.854514 0.91896238,20.681266 0.5989673,20.355406 0.38665913,20.139207 0.2455586,19.919564 0.14219159,19.64437 3.1434423e-4,19.26665 0.01032702,19.847099 0.01032702,12 0.01032702,4.1529007 3.143442e-4,4.7333495 0.14219159,4.3556298 0.2455586,4.0804358 0.38665913,3.8607929 0.5989673,3.6445937 0.92245987,3.3151724 1.2417049,3.1403164 1.6875974,3.048332 1.8318524,3.0185732 2.7998262,3.0154905 12,3.0154905 c 9.200173,0 10.168147,0.00308 10.312403,0.032841 0.439043,0.090572 0.761242,0.2651658 1.079317,0.5848646 0.270027,0.2714078 0.45064,0.5949078 0.551839,0.988408 0.03361,0.1307022 0.03579,0.5787778 0.03579,7.3783959 0,6.799617 -0.0022,7.247692 -0.03579,7.378394 -0.101199,0.393501 -0.281812,0.717001 -0.551839,0.988408 -0.274391,0.275792 -0.531109,0.429179 -0.920119,0.54976 l -0.185887,0.05762 -10.234079,0.0036 C 3.3806429,20.980782 1.7973813,20.97698 1.6854653,20.952652 Z M 22.006885,12 V 4.9982788 H 12 1.9931153 V 12 19.001721 H 12 22.006885 Z"
     id="path2" />
  <path
     style="fill:#ffffff;stroke-width:0.020654"
     d="m 4.021905,16.239243 c 0.00673,-0.727038 0.00898,-0.764252 0.053396,-0.882762 0.1732836,-0.462336 0.6349038,-0.8974 1.3236469,-1.2475 0.7470795,-0.379753 1.7377784,-0.660713 2.8213619,-0.800133 0.3949675,-0.05082 1.1459376,-0.05102 1.5593804,-4.28e-4 1.2406528,0.151831 2.4775178,0.546209 3.2210368,1.027038 0.492559,0.318535 0.786961,0.647563 0.925686,1.034561 0.05412,0.150967 0.05433,0.154073 0.0621,0.889878 l 0.0078,0.738382 H 9.0055979 4.0148813 Z"
     id="path3" />
  <path
     style="fill:#ffffff;stroke-width:0.020654"
     d="M 8.788296,11.975266 C 8.2157675,11.933167 7.70041,11.693034 7.2677996,11.266781 6.7303748,10.737255 6.4919218,10.133789 6.5219762,9.3792853 6.562231,8.3687014 7.2204141,7.490793 8.1939783,7.1491085 c 0.2689158,-0.094379 0.5029302,-0.13247 0.8111852,-0.1320369 1.1951345,0.00168 2.2085585,0.8421375 2.4402025,2.0237225 0.04347,0.2217471 0.04826,0.6555932 0.0096,0.8731474 -0.139584,0.7862825 -0.637846,1.4518855 -1.359117,1.8155765 -0.3960892,0.199722 -0.8284474,0.280979 -1.307595,0.245748 z"
     id="path4" />
  <path
     style="fill:#ffffff;stroke-width:0.020654"
     d="m 14.013769,7.4974182 v -0.495697 h 2.98451 2.984509 v 0.495697 0.4956971 h -2.984509 -2.98451 z"
     id="path5" />
  <path
     style="fill:#ffffff;stroke-width:0.020654"
     d="M 14.013769,9.5008606 V 9.0051635 h 2.98451 2.984509 v 0.4956971 0.4956971 h -2.984509 -2.98451 z"
     id="path6" />
  <path
     style="fill:#ffffff;stroke-width:0.020654"
     d="M 14.013769,11.504303 V 11.008606 H 16.006885 18 V 11.504303 12 h -1.993115 -1.993116 z"
     id="path7" />
</svg>
