<?xml version="1.0" encoding="UTF-8" standalone="no"?>
<svg
   viewBox="0 0 24 24"
   version="1.1"
   id="svg1"
   sodipodi:docname="clock-time-five-outline.svg"
   inkscape:version="1.3 (0e150ed6c4, 2023-07-21)"
   xmlns:inkscape="http://www.inkscape.org/namespaces/inkscape"
   xmlns:sodipodi="http://sodipodi.sourceforge.net/DTD/sodipodi-0.dtd"
   xmlns="http://www.w3.org/2000/svg"
   xmlns:svg="http://www.w3.org/2000/svg">
  <defs
     id="defs1" />
  <sodipodi:namedview
     id="namedview1"
     pagecolor="#ffffff"
     bordercolor="#000000"
     borderopacity="0.25"
     inkscape:showpageshadow="2"
     inkscape:pageopacity="0.0"
     inkscape:pagecheckerboard="0"
     inkscape:deskcolor="#d1d1d1"
     inkscape:zoom="48.416667"
     inkscape:cx="12"
     inkscape:cy="12"
     inkscape:window-width="2560"
     inkscape:window-height="1366"
     inkscape:window-x="0"
     inkscape:window-y="0"
     inkscape:window-maximized="1"
     inkscape:current-layer="svg1" />
  <path
     d="M12 20C16.4 20 20 16.4 20 12S16.4 4 12 4 4 7.6 4 12 7.6 20 12 20M12 2C17.5 2 22 6.5 22 12S17.5 22 12 22C6.5 22 2 17.5 2 12C2 6.5 6.5 2 12 2M15.3 16.2L14 17L11 11.8V7H12.5V11.4L15.3 16.2Z"
     id="path1" />
  <path
     style="fill:#ffffff;stroke-width:0.020654"
     d="M 11.444264,21.974018 C 9.3750456,21.855747 7.4003415,21.093199 5.7609429,19.779358 3.7570347,18.173392 2.4301287,15.830181 2.0983633,13.311532 2.0298559,12.791447 2.0071295,12.342861 2.0204079,11.772806 2.0370033,11.060345 2.0930937,10.56844 2.2312082,9.9241161 2.9726241,6.4653046 5.5260496,3.6267047 8.9009541,2.5094719 10.246969,2.0638854 11.726657,1.9125537 13.135972,2.0763453 c 1.979454,0.2300535 3.835901,1.0483306 5.380379,2.3715414 0.30163,0.2584168 0.856842,0.8207939 1.113407,1.1277753 1.294724,1.5491403 2.053254,3.302702 2.297847,5.312138 0.03975,0.326601 0.04613,0.480323 0.04613,1.1122 0,0.810732 -0.02898,1.153174 -0.154166,1.821833 -0.538204,2.874663 -2.331516,5.386815 -4.892884,6.854171 -1.659983,0.950971 -3.584075,1.406518 -5.482421,1.298014 z m 1.051433,-1.981377 c 1.459697,-0.09653 2.773019,-0.546066 3.986231,-1.36443 1.79595,-1.211445 3.045469,-3.13845 3.407211,-5.254588 0.09196,-0.53798 0.103976,-0.69667 0.103976,-1.373623 0,-0.676953 -0.01201,-0.835643 -0.103976,-1.373623 C 19.305848,7.2142069 16.484134,4.5037861 13.053301,4.0601562 11.453013,3.8532283 9.8624301,4.1190607 8.4413789,4.8309416 5.9096906,6.0992006 4.2422739,8.5638715 4.0155896,11.372865 c -0.030945,0.383457 -0.013236,1.26819 0.031982,1.597875 0.081308,0.592811 0.1953949,1.089011 0.3643904,1.58485 0.5119694,1.502137 1.4324721,2.792424 2.6930291,3.774872 1.5240512,1.187809 3.4736769,1.788959 5.3907059,1.662179 z"
     id="path2" />
  <path
     style="fill:#ffffff;stroke-width:0.020654"
     d="M 12.510534,14.392681 11.018933,11.807302 V 9.4045117 7.0017212 h 0.733218 0.733219 v 2.1997731 2.1997727 l 1.38253,2.369935 c 0.760392,1.303463 1.387801,2.383875 1.394242,2.400915 0.0087,0.02292 -0.149998,0.130397 -0.609809,0.413081 -0.341837,0.210155 -0.627974,0.384521 -0.63586,0.387481 -0.0079,0.003 -0.685558,-1.158039 -1.505939,-2.579998 z"
     id="path3" />
</svg>
