<?xml version="1.0" encoding="UTF-8" standalone="no"?>
<svg
   viewBox="0 0 24 24"
   version="1.1"
   id="svg1"
   sodipodi:docname="cog.svg"
   inkscape:version="1.3 (0e150ed6c4, 2023-07-21)"
   xmlns:inkscape="http://www.inkscape.org/namespaces/inkscape"
   xmlns:sodipodi="http://sodipodi.sourceforge.net/DTD/sodipodi-0.dtd"
   xmlns="http://www.w3.org/2000/svg"
   xmlns:svg="http://www.w3.org/2000/svg">
  <defs
     id="defs1" />
  <sodipodi:namedview
     id="namedview1"
     pagecolor="#ffffff"
     bordercolor="#000000"
     borderopacity="0.25"
     inkscape:showpageshadow="2"
     inkscape:pageopacity="0.0"
     inkscape:pagecheckerboard="0"
     inkscape:deskcolor="#d1d1d1"
     inkscape:zoom="48.416667"
     inkscape:cx="12"
     inkscape:cy="12"
     inkscape:window-width="2560"
     inkscape:window-height="1366"
     inkscape:window-x="0"
     inkscape:window-y="0"
     inkscape:window-maximized="1"
     inkscape:current-layer="svg1" />
  <path
     d="M12,15.5A3.5,3.5 0 0,1 8.5,12A3.5,3.5 0 0,1 12,8.5A3.5,3.5 0 0,1 15.5,12A3.5,3.5 0 0,1 12,15.5M19.43,12.97C19.47,12.65 19.5,12.33 19.5,12C19.5,11.67 19.47,11.34 19.43,11L21.54,9.37C21.73,9.22 21.78,8.95 21.66,8.73L19.66,5.27C19.54,5.05 19.27,4.96 19.05,5.05L16.56,6.05C16.04,5.66 15.5,5.32 14.87,5.07L14.5,2.42C14.46,2.18 14.25,2 14,2H10C9.75,2 9.54,2.18 9.5,2.42L9.13,5.07C8.5,5.32 7.96,5.66 7.44,6.05L4.95,5.05C4.73,4.96 4.46,5.05 4.34,5.27L2.34,8.73C2.21,8.95 2.27,9.22 2.46,9.37L4.57,11C4.53,11.34 4.5,11.67 4.5,12C4.5,12.33 4.53,12.65 4.57,12.97L2.46,14.63C2.27,14.78 2.21,15.05 2.34,15.27L4.34,18.73C4.46,18.95 4.73,19.03 4.95,18.95L7.44,17.94C7.96,18.34 8.5,18.68 9.13,18.93L9.5,21.58C9.54,21.82 9.75,22 10,22H14C14.25,22 14.46,21.82 14.5,21.58L14.87,18.93C15.5,18.67 16.04,18.34 16.56,17.94L19.05,18.95C19.27,19.03 19.54,18.95 19.66,18.73L21.66,15.27C21.78,15.05 21.73,14.78 21.54,14.63L19.43,12.97Z"
     id="path1" />
  <path
     style="fill:#ffffff;stroke-width:0.020654"
     d="M 9.8452203,21.957209 C 9.7129407,21.911524 9.5855254,21.793823 9.5424905,21.677559 9.5254395,21.631494 9.4321411,21.022203 9.3351606,20.32358 9.2381802,19.624957 9.1533298,19.022621 9.1466047,18.985055 9.1364844,18.928528 9.1196794,18.911034 9.0491161,18.88357 8.896573,18.824199 8.3077402,18.517559 8.1124081,18.395772 8.0076233,18.33044 7.8137606,18.198058 7.6816017,18.101591 L 7.4413132,17.926197 6.1888149,18.436225 C 5.0779822,18.888566 4.9206502,18.947312 4.7978051,18.955613 4.641024,18.966207 4.5216582,18.922986 4.4261793,18.821051 4.3717811,18.762974 2.41929,15.39909 2.3312146,15.211704 c -0.066116,-0.140667 -0.06374,-0.262903 0.00786,-0.40406 0.053184,-0.104855 0.1258144,-0.166224 1.1411359,-0.964187 l 1.0843374,-0.852204 -9.458e-4,-0.08771 c -5.2e-4,-0.04824 -0.01342,-0.231771 -0.028666,-0.407847 -0.029988,-0.346318 -0.021366,-0.888446 0.019964,-1.255355 0.013154,-0.11678 0.019221,-0.224565 0.013481,-0.239524 C 4.5626363,10.98586 4.0736828,10.599561 3.4818129,10.142377 2.3062954,9.2343588 2.3045943,9.2327535 2.2864896,9.0144355 2.2794318,8.9293268 2.2885252,8.8818143 2.3284131,8.7953893 2.3564281,8.7346893 2.8275665,7.9089501 3.3753873,6.9604131 4.0491568,5.7937993 4.3969884,5.211121 4.4504336,5.1595237 4.5429524,5.0702036 4.7238054,5.0080158 4.8282269,5.0296162 4.8649568,5.037214 5.4655731,5.2719257 6.1629298,5.5511977 7.342712,6.0236675 7.434125,6.0569153 7.4779471,6.0294824 7.5038499,6.0132671 7.6861252,5.8917245 7.8830034,5.759388 8.2953331,5.4822302 8.7886899,5.2121118 9.0800377,5.1039982 9.1189611,5.0895544 9.1377245,5.0645194 9.1465452,5.0152608 9.1533032,4.9775215 9.2383751,4.375043 9.3355939,3.67642 9.4328127,2.9777969 9.5225087,2.3747748 9.5349183,2.3363709 9.564416,2.2450844 9.6830681,2.1152375 9.7886084,2.0587453 l 0.084025,-0.044976 2.0739506,-0.00565 c 2.332002,-0.00635 2.218951,-0.013098 2.387826,0.1425653 0.04965,0.045764 0.104619,0.1219746 0.122159,0.1693571 0.01754,0.047383 0.115352,0.6849015 0.217359,1.4167086 0.102007,0.7318071 0.192706,1.3363844 0.201553,1.3435051 0.0088,0.00712 0.109028,0.053868 0.222626,0.1038818 0.326677,0.1438283 0.63277,0.3166482 1.019629,0.5756807 0.197286,0.1320977 0.379524,0.2534241 0.404975,0.2696142 0.04292,0.027302 0.138211,-0.00737 1.314277,-0.4781691 0.697402,-0.279183 1.298055,-0.5138738 1.334785,-0.5215355 0.104308,-0.021758 0.28514,0.040355 0.377871,0.1297919 0.05365,0.05174 0.398148,0.6290227 1.070958,1.794605 0.54553,0.9450807 1.012887,1.7583337 1.038572,1.8072289 0.03421,0.065118 0.0469,0.1248153 0.04746,0.2231519 0.0014,0.2440975 0.02262,0.2233923 -1.189368,1.1597648 -0.591769,0.457195 -1.080475,0.843071 -1.086013,0.857502 -0.0055,0.01443 7.64e-4,0.121786 0.014,0.238566 0.05427,0.478644 0.05051,1.011731 -0.01139,1.616801 l -0.01268,0.123924 1.086163,0.853219 c 1.221332,0.959398 1.200664,0.939041 1.199286,1.181205 -5.59e-4,0.09834 -0.01326,0.158033 -0.04746,0.223151 -0.153514,0.292242 -2.041495,3.535593 -2.085349,3.582409 -0.09549,0.101937 -0.21485,0.145156 -0.37163,0.134562 -0.122845,-0.0083 -0.280177,-0.06705 -1.39101,-0.519388 l -1.252498,-0.510028 -0.235445,0.171859 c -0.385802,0.28161 -1.02154,0.645149 -1.372358,0.784767 -0.07033,0.02799 -0.0874,0.04589 -0.09749,0.102232 -0.0067,0.03757 -0.09158,0.639902 -0.188556,1.338525 -0.09698,0.698623 -0.19069,1.308991 -0.208244,1.356374 -0.01755,0.04738 -0.07237,0.123439 -0.121812,0.169013 -0.167598,0.154486 -0.05891,0.147673 -2.343695,0.146916 -1.922122,-6.36e-4 -2.0419845,-0.0028 -2.1458677,-0.03867 z m 2.5128147,-6.467046 c 0.570265,-0.06007 1.105286,-0.249148 1.562791,-0.552298 0.24376,-0.161519 0.315359,-0.21979 0.534015,-0.434603 0.50875,-0.49981 0.83185,-1.090723 0.988556,-1.807957 0.04013,-0.183678 0.04587,-0.270642 0.04587,-0.695305 0,-0.424663 -0.0057,-0.511627 -0.04587,-0.695305 C 15.239449,10.371235 14.722892,9.6013528 13.954022,9.0849137 12.7764,8.2939214 11.226455,8.2937661 10.045978,9.0845221 9.2798817,9.5977002 8.7603511,10.372151 8.5566029,11.304695 8.5164719,11.488373 8.510735,11.575337 8.510735,12 c 0,0.424663 0.00574,0.511627 0.045868,0.695305 0.2081738,0.9528 0.7421616,1.732546 1.547929,2.260335 0.639907,0.41915 1.472945,0.616743 2.253503,0.534523 z"
     id="path2" />
</svg>
