<?xml version="1.0" encoding="UTF-8" standalone="no"?>
<svg
   viewBox="0 0 24 24"
   version="1.1"
   id="svg1"
   sodipodi:docname="help-box.svg"
   inkscape:version="1.3 (0e150ed6c4, 2023-07-21)"
   xmlns:inkscape="http://www.inkscape.org/namespaces/inkscape"
   xmlns:sodipodi="http://sodipodi.sourceforge.net/DTD/sodipodi-0.dtd"
   xmlns="http://www.w3.org/2000/svg"
   xmlns:svg="http://www.w3.org/2000/svg">
  <defs
     id="defs1" />
  <sodipodi:namedview
     id="namedview1"
     pagecolor="#ffffff"
     bordercolor="#000000"
     borderopacity="0.25"
     inkscape:showpageshadow="2"
     inkscape:pageopacity="0.0"
     inkscape:pagecheckerboard="0"
     inkscape:deskcolor="#d1d1d1"
     inkscape:zoom="48.416667"
     inkscape:cx="12"
     inkscape:cy="12"
     inkscape:window-width="2560"
     inkscape:window-height="1366"
     inkscape:window-x="0"
     inkscape:window-y="0"
     inkscape:window-maximized="1"
     inkscape:current-layer="svg1" />
  <path
     d="M11,18H13V16H11V18M12,6A4,4 0 0,0 8,10H10A2,2 0 0,1 12,8A2,2 0 0,1 14,10C14,12 11,11.75 11,15H13C13,12.75 16,12.5 16,10A4,4 0 0,0 12,6M5,3H19A2,2 0 0,1 21,5V19A2,2 0 0,1 19,21H5A2,2 0 0,1 3,19V5A2,2 0 0,1 5,3Z"
     id="path1" />
  <path
     style="fill:#ffffff;stroke-width:0.020654"
     d="M 4.6292493,20.952531 C 4.1021606,20.847468 3.6314259,20.53159 3.3405128,20.087747 3.1595444,19.811645 3.0640284,19.542657 3.0245466,19.197935 3.0101959,19.072636 3.0055219,16.682766 3.0102065,11.865749 3.0166525,5.2376507 3.0196887,4.7093648 3.0520782,4.580379 3.1465235,4.2042666 3.3273226,3.8741954 3.5795553,3.6174044 3.8266775,3.3658164 4.1119017,3.1937177 4.4656457,3.0827551 L 4.6471601,3.0258176 H 12 19.35284 l 0.184613,0.057835 c 0.730763,0.2289331 1.248168,0.7851687 1.411437,1.5173639 0.03335,0.1495754 0.03562,0.6217178 0.03562,7.4196375 v 7.259896 l -0.0569,0.20654 c -0.112029,0.406653 -0.352736,0.786644 -0.65987,1.041697 -0.179598,0.149144 -0.537347,0.334651 -0.770322,0.399442 l -0.165232,0.04595 -7.280551,0.0033 c -6.0884818,0.0028 -7.3037738,-0.0013 -7.4223857,-0.02496 z M 13.001721,16.998279 V 15.986231 H 12 10.998279 v 1.012048 1.012048 H 12 13.001721 Z m 0.0094,-2.101549 c 0.04364,-0.420097 0.102533,-0.631878 0.257947,-0.927643 0.194063,-0.369319 0.466309,-0.679879 1.044219,-1.191177 0.790409,-0.699304 0.995068,-0.910828 1.251668,-1.293654 0.344173,-0.51348 0.482999,-1.078646 0.43217,-1.7593895 C 15.923054,8.7332997 15.527789,7.8618828 14.838403,7.1703757 13.425377,5.7530028 11.185955,5.5936769 9.5882175,6.7968461 8.6324206,7.5166048 8.0721997,8.5778887 7.9945807,9.8158348 l -0.012626,0.2013772 h 1.0097981 1.0097982 l 0.01471,-0.1686412 c 0.06329,-0.725502 0.49515,-1.3408246 1.159589,-1.652191 C 11.472274,8.0574706 11.621093,8.0268601 12,8.0268601 c 0.392951,0 0.542278,0.033029 0.868261,0.1920446 0.630287,0.3074572 1.039094,0.8985937 1.109685,1.6046111 0.04,0.4000342 -0.04305,0.7463442 -0.258623,1.0785032 -0.125194,0.1929 -0.443282,0.510681 -0.747583,0.746862 -0.802983,0.623229 -1.097938,0.893092 -1.350721,1.23581 -0.386544,0.52407 -0.586947,1.120941 -0.616607,1.836479 l -0.0122,0.294321 h 1.003269 1.003269 z"
     id="path2" />
</svg>
