<?xml version="1.0" encoding="UTF-8" standalone="no"?>
<svg
   viewBox="0 0 24 24"
   version="1.1"
   id="svg1"
   sodipodi:docname="message.svg"
   inkscape:version="1.3 (0e150ed6c4, 2023-07-21)"
   xmlns:inkscape="http://www.inkscape.org/namespaces/inkscape"
   xmlns:sodipodi="http://sodipodi.sourceforge.net/DTD/sodipodi-0.dtd"
   xmlns="http://www.w3.org/2000/svg"
   xmlns:svg="http://www.w3.org/2000/svg">
  <defs
     id="defs1" />
  <sodipodi:namedview
     id="namedview1"
     pagecolor="#ffffff"
     bordercolor="#000000"
     borderopacity="0.25"
     inkscape:showpageshadow="2"
     inkscape:pageopacity="0.0"
     inkscape:pagecheckerboard="0"
     inkscape:deskcolor="#d1d1d1"
     inkscape:zoom="48.416667"
     inkscape:cx="12"
     inkscape:cy="12"
     inkscape:window-width="2560"
     inkscape:window-height="1366"
     inkscape:window-x="0"
     inkscape:window-y="0"
     inkscape:window-maximized="1"
     inkscape:current-layer="svg1" />
  <path
     d="M20,2H4A2,2 0 0,0 2,4V22L6,18H20A2,2 0 0,0 22,16V4C22,2.89 21.1,2 20,2Z"
     id="path1" />
  <path
     style="fill:#ffffff;stroke-width:0.020654"
     d="m 2.0188126,12.815835 0.00528,-9.1497421 0.047873,-0.1652323 C 2.2834137,2.771069 2.8236014,2.2469938 3.5571569,2.0599729 l 0.1812252,-0.046203 h 8.2719449 8.271945 l 0.202337,0.055853 c 0.70566,0.194788 1.241166,0.725622 1.443836,1.4312386 l 0.04746,0.1652323 0.0063,6.2375216 c 0.0047,4.6719576 2.3e-4,6.2764016 -0.01779,6.3924266 -0.07899,0.508546 -0.357303,0.977495 -0.763004,1.285651 -0.17489,0.132839 -0.501995,0.291392 -0.722892,0.350395 l -0.175559,0.04689 -7.156627,0.0055 -7.156626,0.0055 -1.9880721,1.987822 -1.9880721,1.987822 z"
     id="path2" />
</svg>
