<?xml version="1.0" encoding="UTF-8" standalone="no"?>
<svg
   viewBox="0 0 24 24"
   version="1.1"
   id="svg1"
   sodipodi:docname="tooltip-edit-outline.svg"
   inkscape:version="1.3 (0e150ed6c4, 2023-07-21)"
   xmlns:inkscape="http://www.inkscape.org/namespaces/inkscape"
   xmlns:sodipodi="http://sodipodi.sourceforge.net/DTD/sodipodi-0.dtd"
   xmlns="http://www.w3.org/2000/svg"
   xmlns:svg="http://www.w3.org/2000/svg">
  <defs
     id="defs1" />
  <sodipodi:namedview
     id="namedview1"
     pagecolor="#ffffff"
     bordercolor="#000000"
     borderopacity="0.25"
     inkscape:showpageshadow="2"
     inkscape:pageopacity="0.0"
     inkscape:pagecheckerboard="0"
     inkscape:deskcolor="#d1d1d1"
     inkscape:zoom="48.416667"
     inkscape:cx="12"
     inkscape:cy="12"
     inkscape:window-width="2560"
     inkscape:window-height="1366"
     inkscape:window-x="0"
     inkscape:window-y="0"
     inkscape:window-maximized="1"
     inkscape:current-layer="svg1" />
  <path
     d="M4 2H20C21.11 2 22 2.9 22 4V16C22 17.11 21.11 18 20 18H16L12 22L8 18H4C2.9 18 2 17.11 2 16V4C2 2.9 2.9 2 4 2M4 4V16H8.83L12 19.17L15.17 16H20V4H4M15.84 8.2L14.83 9.21L12.76 7.18L13.77 6.16C13.97 5.95 14.31 5.94 14.55 6.16L15.84 7.41C16.05 7.62 16.06 7.96 15.84 8.2M8 11.91L12.17 7.72L14.24 9.8L10.08 14H8V11.91Z"
     id="path1" />
  <path
     style="fill:#ffffff;stroke-width:0.020654"
     d="M 10.00743,19.983334 8.0149402,17.990764 5.856007,17.984477 3.697074,17.97819 3.5237143,17.931901 C 2.7352928,17.721384 2.158533,17.087353 2.0356193,16.296041 2.0175972,16.180016 2.0131315,14.575572 2.0178272,9.9036145 l 0.00627,-6.2375216 0.047947,-0.1646153 C 2.2873718,2.762191 2.8530603,2.2233713 3.5938038,2.0519967 3.7531317,2.0151354 4.0542595,2.0137694 12.020654,2.0137694 h 8.261618 l 0.201866,0.055733 c 0.422788,0.1167271 0.805599,0.3640818 1.062433,0.6864955 0.152049,0.1908731 0.312833,0.5044911 0.381874,0.7448626 l 0.04746,0.1652323 0.0054,6.2642814 c 0.0052,6.0743568 0.0042,6.2700448 -0.03366,6.4543888 -0.08333,0.405645 -0.281194,0.769559 -0.564993,1.039141 -0.26163,0.248522 -0.51917,0.396772 -0.864225,0.497479 l -0.194843,0.05687 -2.168675,0.0062 -2.168674,0.0062 -1.993156,1.992676 -1.993155,1.992675 z m 7.584702,-3.976449 h 2.41131 V 9.9965577 3.9862306 H 12 3.9965577 v 6.0103271 6.0103273 h 2.4114101 2.4114099 l 1.5902613,1.590362 1.590261,1.590361 1.590461,-1.590361 1.590461,-1.590362 z"
     id="path2" />
  <path
     style="fill:#ffffff;stroke-width:0.020654"
     d="M 8.0038227,12.95525 8.004203,11.927711 10.08588,9.8320614 12.167558,7.7364118 13.181209,8.758051 c 0.557508,0.5619016 1.014521,1.0309335 1.015586,1.0422932 0.0011,0.01136 -0.924318,0.9570568 -2.056405,2.1015488 l -2.058338,2.080895 H 9.042747 8.0034423 Z"
     id="path3" />
  <path
     style="fill:#ffffff;stroke-width:0.020654"
     d="M 13.801692,8.1838222 12.773779,7.1783156 13.3155,6.6363048 c 0.604864,-0.6051869 0.649596,-0.6374513 0.862434,-0.622056 0.20952,0.015155 0.26172,0.055557 1.010941,0.782439 0.771164,0.7481708 0.793331,0.7759931 0.795878,0.9989071 0.0025,0.2218255 -0.0436,0.2854686 -0.632954,0.8730797 l -0.522195,0.5206542 z"
     id="path4" />
</svg>
